<mxfile host="Electron" modified="2024-01-22T12:16:51.731Z" agent="Mozilla/5.0 (Windows NT 10.0; Win64; x64) AppleWebKit/537.36 (KHTML, like Gecko) draw.io/22.1.11 Chrome/114.0.5735.289 Electron/25.9.8 Safari/537.36" etag="LtxWO-xpfg5sHToiOxzE" version="22.1.11" type="device">
  <diagram name="第 1 页" id="NZdLgOExjl1DyOENXQF9">
    <mxGraphModel dx="1434" dy="844" grid="1" gridSize="10" guides="1" tooltips="1" connect="1" arrows="1" fold="1" page="1" pageScale="1" pageWidth="827" pageHeight="1169" math="0" shadow="0">
      <root>
        <mxCell id="0" />
        <mxCell id="1" parent="0" />
        <mxCell id="rLdiCBzwjdSR8_zOF7HI-1" value="ICharacter" style="swimlane;fontStyle=1;align=center;verticalAlign=top;childLayout=stackLayout;horizontal=1;startSize=26;horizontalStack=0;resizeParent=1;resizeParentMax=0;resizeLast=0;collapsible=1;marginBottom=0;whiteSpace=wrap;html=1;" vertex="1" parent="1">
          <mxGeometry x="580" y="120" width="160" height="60" as="geometry" />
        </mxCell>
        <mxCell id="rLdiCBzwjdSR8_zOF7HI-3" value="" style="line;strokeWidth=1;fillColor=none;align=left;verticalAlign=middle;spacingTop=-1;spacingLeft=3;spacingRight=3;rotatable=0;labelPosition=right;points=[];portConstraint=eastwest;strokeColor=inherit;" vertex="1" parent="rLdiCBzwjdSR8_zOF7HI-1">
          <mxGeometry y="26" width="160" height="8" as="geometry" />
        </mxCell>
        <mxCell id="rLdiCBzwjdSR8_zOF7HI-4" value="+UnderAttack()" style="text;strokeColor=none;fillColor=none;align=left;verticalAlign=top;spacingLeft=4;spacingRight=4;overflow=hidden;rotatable=0;points=[[0,0.5],[1,0.5]];portConstraint=eastwest;whiteSpace=wrap;html=1;" vertex="1" parent="rLdiCBzwjdSR8_zOF7HI-1">
          <mxGeometry y="34" width="160" height="26" as="geometry" />
        </mxCell>
        <mxCell id="rLdiCBzwjdSR8_zOF7HI-52" style="edgeStyle=none;rounded=0;orthogonalLoop=1;jettySize=auto;html=1;endArrow=blockThin;endFill=0;" edge="1" parent="1" source="rLdiCBzwjdSR8_zOF7HI-5" target="rLdiCBzwjdSR8_zOF7HI-1">
          <mxGeometry relative="1" as="geometry" />
        </mxCell>
        <mxCell id="rLdiCBzwjdSR8_zOF7HI-5" value="ISoldier" style="swimlane;fontStyle=1;align=center;verticalAlign=top;childLayout=stackLayout;horizontal=1;startSize=26;horizontalStack=0;resizeParent=1;resizeParentMax=0;resizeLast=0;collapsible=1;marginBottom=0;whiteSpace=wrap;html=1;" vertex="1" parent="1">
          <mxGeometry x="280" y="280" width="160" height="112" as="geometry" />
        </mxCell>
        <mxCell id="rLdiCBzwjdSR8_zOF7HI-6" value="" style="line;strokeWidth=1;fillColor=none;align=left;verticalAlign=middle;spacingTop=-1;spacingLeft=3;spacingRight=3;rotatable=0;labelPosition=right;points=[];portConstraint=eastwest;strokeColor=inherit;" vertex="1" parent="rLdiCBzwjdSR8_zOF7HI-5">
          <mxGeometry y="26" width="160" height="8" as="geometry" />
        </mxCell>
        <mxCell id="rLdiCBzwjdSR8_zOF7HI-7" value="+UnderAttack()" style="text;strokeColor=none;fillColor=none;align=left;verticalAlign=top;spacingLeft=4;spacingRight=4;overflow=hidden;rotatable=0;points=[[0,0.5],[1,0.5]];portConstraint=eastwest;whiteSpace=wrap;html=1;" vertex="1" parent="rLdiCBzwjdSR8_zOF7HI-5">
          <mxGeometry y="34" width="160" height="26" as="geometry" />
        </mxCell>
        <mxCell id="rLdiCBzwjdSR8_zOF7HI-8" value="#DoPlayerKilledSound()" style="text;strokeColor=none;fillColor=none;align=left;verticalAlign=top;spacingLeft=4;spacingRight=4;overflow=hidden;rotatable=0;points=[[0,0.5],[1,0.5]];portConstraint=eastwest;whiteSpace=wrap;html=1;" vertex="1" parent="rLdiCBzwjdSR8_zOF7HI-5">
          <mxGeometry y="60" width="160" height="26" as="geometry" />
        </mxCell>
        <mxCell id="rLdiCBzwjdSR8_zOF7HI-9" value="#DoShowKilledEffect()" style="text;strokeColor=none;fillColor=none;align=left;verticalAlign=top;spacingLeft=4;spacingRight=4;overflow=hidden;rotatable=0;points=[[0,0.5],[1,0.5]];portConstraint=eastwest;whiteSpace=wrap;html=1;" vertex="1" parent="rLdiCBzwjdSR8_zOF7HI-5">
          <mxGeometry y="86" width="160" height="26" as="geometry" />
        </mxCell>
        <mxCell id="rLdiCBzwjdSR8_zOF7HI-46" style="edgeStyle=none;rounded=0;orthogonalLoop=1;jettySize=auto;html=1;endArrow=blockThin;endFill=0;" edge="1" parent="1" source="rLdiCBzwjdSR8_zOF7HI-15" target="rLdiCBzwjdSR8_zOF7HI-5">
          <mxGeometry relative="1" as="geometry" />
        </mxCell>
        <mxCell id="rLdiCBzwjdSR8_zOF7HI-15" value="SoldierCaptain" style="swimlane;fontStyle=1;align=center;verticalAlign=top;childLayout=stackLayout;horizontal=1;startSize=26;horizontalStack=0;resizeParent=1;resizeParentMax=0;resizeLast=0;collapsible=1;marginBottom=0;whiteSpace=wrap;html=1;" vertex="1" parent="1">
          <mxGeometry x="80" y="480" width="160" height="86" as="geometry" />
        </mxCell>
        <mxCell id="rLdiCBzwjdSR8_zOF7HI-16" value="" style="line;strokeWidth=1;fillColor=none;align=left;verticalAlign=middle;spacingTop=-1;spacingLeft=3;spacingRight=3;rotatable=0;labelPosition=right;points=[];portConstraint=eastwest;strokeColor=inherit;" vertex="1" parent="rLdiCBzwjdSR8_zOF7HI-15">
          <mxGeometry y="26" width="160" height="8" as="geometry" />
        </mxCell>
        <mxCell id="rLdiCBzwjdSR8_zOF7HI-17" value="#DoPlayerKilledSound()" style="text;strokeColor=none;fillColor=none;align=left;verticalAlign=top;spacingLeft=4;spacingRight=4;overflow=hidden;rotatable=0;points=[[0,0.5],[1,0.5]];portConstraint=eastwest;whiteSpace=wrap;html=1;" vertex="1" parent="rLdiCBzwjdSR8_zOF7HI-15">
          <mxGeometry y="34" width="160" height="26" as="geometry" />
        </mxCell>
        <mxCell id="rLdiCBzwjdSR8_zOF7HI-18" value="#DoShowKilledEffect()" style="text;strokeColor=none;fillColor=none;align=left;verticalAlign=top;spacingLeft=4;spacingRight=4;overflow=hidden;rotatable=0;points=[[0,0.5],[1,0.5]];portConstraint=eastwest;whiteSpace=wrap;html=1;" vertex="1" parent="rLdiCBzwjdSR8_zOF7HI-15">
          <mxGeometry y="60" width="160" height="26" as="geometry" />
        </mxCell>
        <mxCell id="rLdiCBzwjdSR8_zOF7HI-47" style="edgeStyle=none;rounded=0;orthogonalLoop=1;jettySize=auto;html=1;endArrow=blockThin;endFill=0;" edge="1" parent="1" source="rLdiCBzwjdSR8_zOF7HI-19" target="rLdiCBzwjdSR8_zOF7HI-5">
          <mxGeometry relative="1" as="geometry" />
        </mxCell>
        <mxCell id="rLdiCBzwjdSR8_zOF7HI-19" value="SoldierRookie" style="swimlane;fontStyle=1;align=center;verticalAlign=top;childLayout=stackLayout;horizontal=1;startSize=26;horizontalStack=0;resizeParent=1;resizeParentMax=0;resizeLast=0;collapsible=1;marginBottom=0;whiteSpace=wrap;html=1;" vertex="1" parent="1">
          <mxGeometry x="280" y="480" width="160" height="86" as="geometry" />
        </mxCell>
        <mxCell id="rLdiCBzwjdSR8_zOF7HI-20" value="" style="line;strokeWidth=1;fillColor=none;align=left;verticalAlign=middle;spacingTop=-1;spacingLeft=3;spacingRight=3;rotatable=0;labelPosition=right;points=[];portConstraint=eastwest;strokeColor=inherit;" vertex="1" parent="rLdiCBzwjdSR8_zOF7HI-19">
          <mxGeometry y="26" width="160" height="8" as="geometry" />
        </mxCell>
        <mxCell id="rLdiCBzwjdSR8_zOF7HI-21" value="#DoPlayerKilledSound()" style="text;strokeColor=none;fillColor=none;align=left;verticalAlign=top;spacingLeft=4;spacingRight=4;overflow=hidden;rotatable=0;points=[[0,0.5],[1,0.5]];portConstraint=eastwest;whiteSpace=wrap;html=1;" vertex="1" parent="rLdiCBzwjdSR8_zOF7HI-19">
          <mxGeometry y="34" width="160" height="26" as="geometry" />
        </mxCell>
        <mxCell id="rLdiCBzwjdSR8_zOF7HI-22" value="#DoShowKilledEffect()" style="text;strokeColor=none;fillColor=none;align=left;verticalAlign=top;spacingLeft=4;spacingRight=4;overflow=hidden;rotatable=0;points=[[0,0.5],[1,0.5]];portConstraint=eastwest;whiteSpace=wrap;html=1;" vertex="1" parent="rLdiCBzwjdSR8_zOF7HI-19">
          <mxGeometry y="60" width="160" height="26" as="geometry" />
        </mxCell>
        <mxCell id="rLdiCBzwjdSR8_zOF7HI-48" style="edgeStyle=none;rounded=0;orthogonalLoop=1;jettySize=auto;html=1;endArrow=blockThin;endFill=0;" edge="1" parent="1" source="rLdiCBzwjdSR8_zOF7HI-23" target="rLdiCBzwjdSR8_zOF7HI-5">
          <mxGeometry relative="1" as="geometry" />
        </mxCell>
        <mxCell id="rLdiCBzwjdSR8_zOF7HI-23" value="SoldierSergeant" style="swimlane;fontStyle=1;align=center;verticalAlign=top;childLayout=stackLayout;horizontal=1;startSize=26;horizontalStack=0;resizeParent=1;resizeParentMax=0;resizeLast=0;collapsible=1;marginBottom=0;whiteSpace=wrap;html=1;" vertex="1" parent="1">
          <mxGeometry x="480" y="480" width="160" height="86" as="geometry" />
        </mxCell>
        <mxCell id="rLdiCBzwjdSR8_zOF7HI-24" value="" style="line;strokeWidth=1;fillColor=none;align=left;verticalAlign=middle;spacingTop=-1;spacingLeft=3;spacingRight=3;rotatable=0;labelPosition=right;points=[];portConstraint=eastwest;strokeColor=inherit;" vertex="1" parent="rLdiCBzwjdSR8_zOF7HI-23">
          <mxGeometry y="26" width="160" height="8" as="geometry" />
        </mxCell>
        <mxCell id="rLdiCBzwjdSR8_zOF7HI-25" value="#DoPlayerKilledSound()" style="text;strokeColor=none;fillColor=none;align=left;verticalAlign=top;spacingLeft=4;spacingRight=4;overflow=hidden;rotatable=0;points=[[0,0.5],[1,0.5]];portConstraint=eastwest;whiteSpace=wrap;html=1;" vertex="1" parent="rLdiCBzwjdSR8_zOF7HI-23">
          <mxGeometry y="34" width="160" height="26" as="geometry" />
        </mxCell>
        <mxCell id="rLdiCBzwjdSR8_zOF7HI-26" value="#DoShowKilledEffect()" style="text;strokeColor=none;fillColor=none;align=left;verticalAlign=top;spacingLeft=4;spacingRight=4;overflow=hidden;rotatable=0;points=[[0,0.5],[1,0.5]];portConstraint=eastwest;whiteSpace=wrap;html=1;" vertex="1" parent="rLdiCBzwjdSR8_zOF7HI-23">
          <mxGeometry y="60" width="160" height="26" as="geometry" />
        </mxCell>
        <mxCell id="rLdiCBzwjdSR8_zOF7HI-54" style="edgeStyle=none;rounded=0;orthogonalLoop=1;jettySize=auto;html=1;endArrow=none;endFill=0;dashed=1;" edge="1" parent="1" source="rLdiCBzwjdSR8_zOF7HI-27" target="rLdiCBzwjdSR8_zOF7HI-5">
          <mxGeometry relative="1" as="geometry" />
        </mxCell>
        <mxCell id="rLdiCBzwjdSR8_zOF7HI-27" value="function UnderAttack(){&lt;br&gt;&amp;nbsp; &amp;nbsp; ...&lt;br&gt;&amp;nbsp; &amp;nbsp; DoPlayerKilledSound();&lt;br&gt;&amp;nbsp; &amp;nbsp; DoShowKilledEffect();&lt;br&gt;}" style="shape=note;whiteSpace=wrap;html=1;backgroundOutline=1;darkOpacity=0.05;spacingLeft=4;spacingRight=4;align=left;" vertex="1" parent="1">
          <mxGeometry y="286" width="180" height="100" as="geometry" />
        </mxCell>
        <mxCell id="rLdiCBzwjdSR8_zOF7HI-53" style="edgeStyle=none;rounded=0;orthogonalLoop=1;jettySize=auto;html=1;endArrow=blockThin;endFill=0;" edge="1" parent="1" source="rLdiCBzwjdSR8_zOF7HI-28" target="rLdiCBzwjdSR8_zOF7HI-1">
          <mxGeometry relative="1" as="geometry" />
        </mxCell>
        <mxCell id="rLdiCBzwjdSR8_zOF7HI-28" value="IEnemy" style="swimlane;fontStyle=1;align=center;verticalAlign=top;childLayout=stackLayout;horizontal=1;startSize=26;horizontalStack=0;resizeParent=1;resizeParentMax=0;resizeLast=0;collapsible=1;marginBottom=0;whiteSpace=wrap;html=1;" vertex="1" parent="1">
          <mxGeometry x="880" y="280" width="160" height="112" as="geometry" />
        </mxCell>
        <mxCell id="rLdiCBzwjdSR8_zOF7HI-29" value="" style="line;strokeWidth=1;fillColor=none;align=left;verticalAlign=middle;spacingTop=-1;spacingLeft=3;spacingRight=3;rotatable=0;labelPosition=right;points=[];portConstraint=eastwest;strokeColor=inherit;" vertex="1" parent="rLdiCBzwjdSR8_zOF7HI-28">
          <mxGeometry y="26" width="160" height="8" as="geometry" />
        </mxCell>
        <mxCell id="rLdiCBzwjdSR8_zOF7HI-30" value="+UnderAttack()" style="text;strokeColor=none;fillColor=none;align=left;verticalAlign=top;spacingLeft=4;spacingRight=4;overflow=hidden;rotatable=0;points=[[0,0.5],[1,0.5]];portConstraint=eastwest;whiteSpace=wrap;html=1;" vertex="1" parent="rLdiCBzwjdSR8_zOF7HI-28">
          <mxGeometry y="34" width="160" height="26" as="geometry" />
        </mxCell>
        <mxCell id="rLdiCBzwjdSR8_zOF7HI-31" value="#DoPlayHitSound()" style="text;strokeColor=none;fillColor=none;align=left;verticalAlign=top;spacingLeft=4;spacingRight=4;overflow=hidden;rotatable=0;points=[[0,0.5],[1,0.5]];portConstraint=eastwest;whiteSpace=wrap;html=1;" vertex="1" parent="rLdiCBzwjdSR8_zOF7HI-28">
          <mxGeometry y="60" width="160" height="26" as="geometry" />
        </mxCell>
        <mxCell id="rLdiCBzwjdSR8_zOF7HI-32" value="#DoShowHitEffect()" style="text;strokeColor=none;fillColor=none;align=left;verticalAlign=top;spacingLeft=4;spacingRight=4;overflow=hidden;rotatable=0;points=[[0,0.5],[1,0.5]];portConstraint=eastwest;whiteSpace=wrap;html=1;" vertex="1" parent="rLdiCBzwjdSR8_zOF7HI-28">
          <mxGeometry y="86" width="160" height="26" as="geometry" />
        </mxCell>
        <mxCell id="rLdiCBzwjdSR8_zOF7HI-50" style="edgeStyle=none;rounded=0;orthogonalLoop=1;jettySize=auto;html=1;endArrow=blockThin;endFill=0;" edge="1" parent="1" source="rLdiCBzwjdSR8_zOF7HI-33" target="rLdiCBzwjdSR8_zOF7HI-28">
          <mxGeometry relative="1" as="geometry" />
        </mxCell>
        <mxCell id="rLdiCBzwjdSR8_zOF7HI-33" value="EnemyElf" style="swimlane;fontStyle=1;align=center;verticalAlign=top;childLayout=stackLayout;horizontal=1;startSize=26;horizontalStack=0;resizeParent=1;resizeParentMax=0;resizeLast=0;collapsible=1;marginBottom=0;whiteSpace=wrap;html=1;" vertex="1" parent="1">
          <mxGeometry x="680" y="480" width="160" height="86" as="geometry" />
        </mxCell>
        <mxCell id="rLdiCBzwjdSR8_zOF7HI-34" value="" style="line;strokeWidth=1;fillColor=none;align=left;verticalAlign=middle;spacingTop=-1;spacingLeft=3;spacingRight=3;rotatable=0;labelPosition=right;points=[];portConstraint=eastwest;strokeColor=inherit;" vertex="1" parent="rLdiCBzwjdSR8_zOF7HI-33">
          <mxGeometry y="26" width="160" height="8" as="geometry" />
        </mxCell>
        <mxCell id="rLdiCBzwjdSR8_zOF7HI-36" value="#DoPlayHitSound()" style="text;strokeColor=none;fillColor=none;align=left;verticalAlign=top;spacingLeft=4;spacingRight=4;overflow=hidden;rotatable=0;points=[[0,0.5],[1,0.5]];portConstraint=eastwest;whiteSpace=wrap;html=1;" vertex="1" parent="rLdiCBzwjdSR8_zOF7HI-33">
          <mxGeometry y="34" width="160" height="26" as="geometry" />
        </mxCell>
        <mxCell id="rLdiCBzwjdSR8_zOF7HI-37" value="#DoShowHitEffect()" style="text;strokeColor=none;fillColor=none;align=left;verticalAlign=top;spacingLeft=4;spacingRight=4;overflow=hidden;rotatable=0;points=[[0,0.5],[1,0.5]];portConstraint=eastwest;whiteSpace=wrap;html=1;" vertex="1" parent="rLdiCBzwjdSR8_zOF7HI-33">
          <mxGeometry y="60" width="160" height="26" as="geometry" />
        </mxCell>
        <mxCell id="rLdiCBzwjdSR8_zOF7HI-49" style="edgeStyle=none;rounded=0;orthogonalLoop=1;jettySize=auto;html=1;endArrow=blockThin;endFill=0;" edge="1" parent="1" source="rLdiCBzwjdSR8_zOF7HI-38" target="rLdiCBzwjdSR8_zOF7HI-28">
          <mxGeometry relative="1" as="geometry" />
        </mxCell>
        <mxCell id="rLdiCBzwjdSR8_zOF7HI-38" value="EnemyOrge" style="swimlane;fontStyle=1;align=center;verticalAlign=top;childLayout=stackLayout;horizontal=1;startSize=26;horizontalStack=0;resizeParent=1;resizeParentMax=0;resizeLast=0;collapsible=1;marginBottom=0;whiteSpace=wrap;html=1;" vertex="1" parent="1">
          <mxGeometry x="880" y="480" width="160" height="86" as="geometry" />
        </mxCell>
        <mxCell id="rLdiCBzwjdSR8_zOF7HI-39" value="" style="line;strokeWidth=1;fillColor=none;align=left;verticalAlign=middle;spacingTop=-1;spacingLeft=3;spacingRight=3;rotatable=0;labelPosition=right;points=[];portConstraint=eastwest;strokeColor=inherit;" vertex="1" parent="rLdiCBzwjdSR8_zOF7HI-38">
          <mxGeometry y="26" width="160" height="8" as="geometry" />
        </mxCell>
        <mxCell id="rLdiCBzwjdSR8_zOF7HI-40" value="#DoPlayHitSound()" style="text;strokeColor=none;fillColor=none;align=left;verticalAlign=top;spacingLeft=4;spacingRight=4;overflow=hidden;rotatable=0;points=[[0,0.5],[1,0.5]];portConstraint=eastwest;whiteSpace=wrap;html=1;" vertex="1" parent="rLdiCBzwjdSR8_zOF7HI-38">
          <mxGeometry y="34" width="160" height="26" as="geometry" />
        </mxCell>
        <mxCell id="rLdiCBzwjdSR8_zOF7HI-41" value="#DoShowHitEffect()" style="text;strokeColor=none;fillColor=none;align=left;verticalAlign=top;spacingLeft=4;spacingRight=4;overflow=hidden;rotatable=0;points=[[0,0.5],[1,0.5]];portConstraint=eastwest;whiteSpace=wrap;html=1;" vertex="1" parent="rLdiCBzwjdSR8_zOF7HI-38">
          <mxGeometry y="60" width="160" height="26" as="geometry" />
        </mxCell>
        <mxCell id="rLdiCBzwjdSR8_zOF7HI-51" style="edgeStyle=none;rounded=0;orthogonalLoop=1;jettySize=auto;html=1;endArrow=blockThin;endFill=0;" edge="1" parent="1" source="rLdiCBzwjdSR8_zOF7HI-42" target="rLdiCBzwjdSR8_zOF7HI-28">
          <mxGeometry relative="1" as="geometry" />
        </mxCell>
        <mxCell id="rLdiCBzwjdSR8_zOF7HI-42" value="EnemyTroll" style="swimlane;fontStyle=1;align=center;verticalAlign=top;childLayout=stackLayout;horizontal=1;startSize=26;horizontalStack=0;resizeParent=1;resizeParentMax=0;resizeLast=0;collapsible=1;marginBottom=0;whiteSpace=wrap;html=1;" vertex="1" parent="1">
          <mxGeometry x="1081" y="480" width="160" height="86" as="geometry" />
        </mxCell>
        <mxCell id="rLdiCBzwjdSR8_zOF7HI-43" value="" style="line;strokeWidth=1;fillColor=none;align=left;verticalAlign=middle;spacingTop=-1;spacingLeft=3;spacingRight=3;rotatable=0;labelPosition=right;points=[];portConstraint=eastwest;strokeColor=inherit;" vertex="1" parent="rLdiCBzwjdSR8_zOF7HI-42">
          <mxGeometry y="26" width="160" height="8" as="geometry" />
        </mxCell>
        <mxCell id="rLdiCBzwjdSR8_zOF7HI-44" value="#DoPlayHitSound()" style="text;strokeColor=none;fillColor=none;align=left;verticalAlign=top;spacingLeft=4;spacingRight=4;overflow=hidden;rotatable=0;points=[[0,0.5],[1,0.5]];portConstraint=eastwest;whiteSpace=wrap;html=1;" vertex="1" parent="rLdiCBzwjdSR8_zOF7HI-42">
          <mxGeometry y="34" width="160" height="26" as="geometry" />
        </mxCell>
        <mxCell id="rLdiCBzwjdSR8_zOF7HI-45" value="#DoShowHitEffect()" style="text;strokeColor=none;fillColor=none;align=left;verticalAlign=top;spacingLeft=4;spacingRight=4;overflow=hidden;rotatable=0;points=[[0,0.5],[1,0.5]];portConstraint=eastwest;whiteSpace=wrap;html=1;" vertex="1" parent="rLdiCBzwjdSR8_zOF7HI-42">
          <mxGeometry y="60" width="160" height="26" as="geometry" />
        </mxCell>
        <mxCell id="rLdiCBzwjdSR8_zOF7HI-57" style="edgeStyle=none;rounded=0;orthogonalLoop=1;jettySize=auto;html=1;endArrow=none;endFill=0;dashed=1;" edge="1" parent="1" source="rLdiCBzwjdSR8_zOF7HI-55" target="rLdiCBzwjdSR8_zOF7HI-28">
          <mxGeometry relative="1" as="geometry" />
        </mxCell>
        <mxCell id="rLdiCBzwjdSR8_zOF7HI-55" value="function UnderAttack(){&lt;br&gt;&amp;nbsp; &amp;nbsp; ...&lt;br&gt;&amp;nbsp; &amp;nbsp; DoPlayHitSound();&lt;br&gt;&amp;nbsp; &amp;nbsp; DoShowHitEffect();&lt;br&gt;}" style="shape=note;whiteSpace=wrap;html=1;backgroundOutline=1;darkOpacity=0.05;spacingLeft=4;spacingRight=4;align=left;" vertex="1" parent="1">
          <mxGeometry x="1140" y="286" width="180" height="100" as="geometry" />
        </mxCell>
      </root>
    </mxGraphModel>
  </diagram>
</mxfile>
